<svg xmlns="http://www.w3.org/2000/svg" xmlns:xlink="http://www.w3.org/1999/xlink" xmlns:v="http://vecta.io" width="1123" height="794" viewBox="0 0 1123 794" ><style><![CDATA[svg{stroke:#000;stroke-linecap:round;stroke-linejoin:round;fill:#fff;fill-rule:evenodd;font-family:Roboto;font-size:14px;text-anchor:middle} svg text{stroke:none}]]></style><g transform="translate(61 61)"><rect x="0" y="0" width="1020" height="670" stroke-width="0" fill="#262626" fill-opacity="0.54"/></g><g transform="translate(46 51)"><rect x="0" y="0" width="1015" height="660" stroke-width="3" stroke="none"/></g><g transform="translate(46 51)"><rect x="0" y="0" width="1015" height="110" stroke-width="3" fill="#646464" stroke="none"/></g><g transform="translate(86 86)"><ellipse cx="18" cy="18" rx="18" ry="18" stroke-width="0" fill="#fa5f56" stroke="none"/></g><g transform="translate(146 86)"><ellipse cx="18" cy="18" rx="18" ry="18" fill="#fcb824" stroke="none"/></g><g transform="translate(206 86)"><ellipse cx="18" cy="18" rx="18" ry="18" fill="#30cc3e" stroke="none"/></g><g transform="translate(46 161)"><rect x="0" y="0" width="85" height="550" stroke-width="0" fill="#c1c1c1"/></g><g transform="translate(71 171)"><ellipse cx="15" cy="15" rx="15" ry="15" stroke="none"/></g><g transform="translate(71 221)"><ellipse cx="15" cy="15" rx="15" ry="15" stroke="none"/></g><g transform="translate(71 271)"><ellipse cx="15" cy="15" rx="15" ry="15" stroke="none"/></g><g transform="translate(71 321)"><ellipse cx="15" cy="15" rx="15" ry="15" stroke="none"/></g><g transform="translate(71 371)"><ellipse cx="15" cy="15" rx="15" ry="15" stroke="none"/></g><g transform="translate(71 421)"><ellipse cx="15" cy="15" rx="15" ry="15" stroke="none"/></g><g transform="translate(71 471)"><ellipse cx="15" cy="15" rx="15" ry="15" stroke="none"/></g><g transform="translate(71 521)"><ellipse cx="15" cy="15" rx="15" ry="15" stroke="none"/></g><g transform="translate(71 571)"><ellipse cx="15" cy="15" rx="15" ry="15" stroke="none"/></g><g transform="translate(71 621)"><ellipse cx="15" cy="15" rx="15" ry="15" stroke="none"/></g><g transform="translate(71 671)"><ellipse cx="15" cy="15" rx="15" ry="15" stroke="none"/></g><g transform="translate(161 176)"><rect x="0" y="0" width="240" height="20" stroke-width="0" fill="#59c9ae" stroke="none" rx="10"/></g><g transform="translate(421 176)"><rect x="0" y="0" width="135" height="20" fill="#dcdda4" stroke="none" rx="10"/></g><g transform="translate(576 176)"><rect x="0" y="0" width="195" height="20" fill="#a0dbff" stroke="none" rx="10"/></g><g transform="translate(791 176)"><rect x="0" y="0" width="140" height="20" fill="#cc9274" stroke="none" rx="10"/></g><g transform="translate(161 226)"><rect x="0" y="0" width="100" height="20" fill="#a0dbff" stroke="none" rx="10"/></g><g transform="translate(281 226)"><rect x="0" y="0" width="155" height="20" fill="#c285bf" stroke="none" rx="10"/></g><g transform="translate(566 226)"><rect x="0" y="0" width="165" height="20" fill="#dcdda4" stroke="none" rx="10"/></g><g transform="translate(751 226)"><rect x="0" y="0" width="165" height="20" fill="#cc9274" stroke="none" rx="10"/></g><g transform="translate(161 276)"><rect x="0" y="0" width="155" height="20" fill="#dcdda4" stroke="none" rx="10"/></g><g transform="translate(341 276)"><rect x="0" y="0" width="250" height="20" fill="#cc9274" stroke="none" rx="10"/></g><g transform="translate(611 276)"><rect x="0" y="0" width="90" height="20" fill="#59c9ae" stroke="none" rx="10"/></g><g transform="translate(721 276)"><rect x="0" y="0" width="90" height="20" fill="#a0dbff" stroke="none" rx="10"/></g><g transform="translate(831 276)"><rect x="0" y="0" width="125" height="20" fill="#dcdda4" stroke="none" rx="10"/></g><g transform="translate(161 326)"><rect x="0" y="0" width="115" height="20" fill="#cc9274" stroke="none" rx="10"/></g><g transform="translate(296 326)"><rect x="0" y="0" width="155" height="20" fill="#a0dbff" stroke="none" rx="10"/></g><g transform="translate(471 326)"><rect x="0" y="0" width="105" height="20" fill="#c285bf" stroke="none" rx="10"/></g><g transform="translate(596 326)"><rect x="0" y="0" width="175" height="20" fill="#dcdda4" stroke="none" rx="10"/></g><g transform="translate(791 326)"><rect x="0" y="0" width="135" height="20" fill="#59c9ae" stroke="none" rx="10"/></g><g transform="translate(456 226)"><rect x="0" y="0" width="90" height="20" fill="#59c9ae" stroke="none" rx="10"/></g><g transform="translate(161 376)"><rect x="0" y="0" width="85" height="20" fill="#59c9ae" stroke="none" rx="10"/></g><g transform="translate(266 376)"><rect x="0" y="0" width="125" height="20" fill="#dcdda4" stroke="none" rx="10"/></g><g transform="translate(411 376)"><rect x="0" y="0" width="195" height="20" fill="#dcdda4" stroke="none" rx="10"/></g><g transform="translate(626 376)"><rect x="0" y="0" width="155" height="20" fill="#a0dbff" stroke="none" rx="10"/></g><g transform="translate(801 376)"><rect x="0" y="0" width="80" height="20" fill="#c285bf" stroke="none" rx="10"/></g><g transform="translate(161 426)"><rect x="0" y="0" width="165" height="20" fill="#cc9274" stroke="none" rx="10"/></g><g transform="translate(346 426)"><rect x="0" y="0" width="110" height="20" fill="#dcdda4" stroke="none" rx="10"/></g><g transform="translate(476 426)"><rect x="0" y="0" width="165" height="20" fill="#59c9ae" stroke="none" rx="10"/></g><g transform="translate(661 426)"><rect x="0" y="0" width="135" height="20" fill="#a0dbff" stroke="none" rx="10"/></g><g transform="translate(816 426)"><rect x="0" y="0" width="120" height="20" fill="#dcdda4" stroke="none" rx="10"/></g><g transform="translate(161 476)"><rect x="0" y="0" width="115" height="20" fill="#59c9ae" stroke="none" rx="10"/></g><g transform="translate(296 476)"><rect x="0" y="0" width="175" height="20" fill="#c285bf" stroke="none" rx="10"/></g><g transform="translate(491 476)"><rect x="0" y="0" width="160" height="20" fill="#a0dbff" stroke="none" rx="10"/></g><g transform="translate(671 476)"><rect x="0" y="0" width="135" height="20" fill="#dcdda4" stroke="none" rx="10"/></g><g transform="translate(826 476)"><rect x="0" y="0" width="125" height="20" fill="#dcdda4" stroke="none" rx="10"/></g><g transform="translate(161 526)"><rect x="0" y="0" width="135" height="20" fill="#dcdda4" stroke="none" rx="10"/></g><g transform="translate(316 526)"><rect x="0" y="0" width="90" height="20" fill="#cc9274" stroke="none" rx="10"/></g><g transform="translate(426 526)"><rect x="0" y="0" width="115" height="20" fill="#dcdda4" stroke="none" rx="10"/></g><g transform="translate(561 526)"><rect x="0" y="0" width="190" height="20" fill="#59c9ae" stroke="none" rx="10"/></g><g transform="translate(771 526)"><rect x="0" y="0" width="160" height="20" fill="#a0dbff" stroke="none" rx="10"/></g><g transform="translate(161 576)"><rect x="0" y="0" width="55" height="20" fill="#a0dbff" stroke="none" rx="10"/></g><g transform="translate(236 576)"><rect x="0" y="0" width="100" height="20" fill="#59c9ae" stroke="none" rx="10"/></g><g transform="translate(356 576)"><rect x="0" y="0" width="135" height="20" fill="#dcdda4" stroke="none" rx="10"/></g><g transform="translate(511 576)"><rect x="0" y="0" width="250" height="20" fill="#c285bf" stroke="none" rx="10"/></g><g transform="translate(781 576)"><rect x="0" y="0" width="195" height="20" fill="#cc9274" stroke="none" rx="10"/></g><g transform="translate(161 626)"><rect x="0" y="0" width="185" height="20" fill="#59c9ae" stroke="none" rx="10"/></g><g transform="translate(366 626)"><rect x="0" y="0" width="145" height="20" fill="#dcdda4" stroke="none" rx="10"/></g><g transform="translate(531 626)"><rect x="0" y="0" width="100" height="20" fill="#a0dbff" stroke="none" rx="10"/></g><g transform="translate(651 626)"><rect x="0" y="0" width="145" height="20" fill="#dcdda4" stroke="none" rx="10"/></g><g transform="translate(816 626)"><rect x="0" y="0" width="105" height="20" fill="#cc9274" stroke="none" rx="10"/></g><g transform="translate(161 676)"><rect x="0" y="0" width="125" height="20" fill="#dcdda4" stroke="none" rx="10"/></g><g transform="translate(306 676)"><rect x="0" y="0" width="85" height="20" fill="#a0dbff" stroke="none" rx="10"/></g><g transform="translate(411 676)"><rect x="0" y="0" width="115" height="20" fill="#cc9274" stroke="none" rx="10"/></g><g transform="translate(546 676)"><rect x="0" y="0" width="135" height="20" fill="#59c9ae" stroke="none" rx="10"/></g><g transform="translate(701 676)"><rect x="0" y="0" width="110" height="20" fill="#dcdda4" stroke="none" rx="10"/></g><g transform="translate(831 676)"><rect x="0" y="0" width="160" height="20" fill="#c285bf" stroke="none" rx="10"/></g></svg>